<?xml version="1.0" standalone="no"?>
<!DOCTYPE svg PUBLIC "-//W3C//DTD SVG 20010904//EN"
 "http://www.w3.org/TR/2001/REC-SVG-20010904/DTD/svg10.dtd">
<svg version="1.0" xmlns="http://www.w3.org/2000/svg"
 width="1000.000000pt" height="434.000000pt" viewBox="0 0 1000.000000 434.000000"
 preserveAspectRatio="xMidYMid meet">

<g transform="translate(0.000000,434.000000) scale(0.100000,-0.100000)"
fill="#000000" stroke="none">
<path d="M1900 4325 c-633 -80 -1204 -438 -1552 -975 -329 -507 -430 -1135
-277 -1728 189 -735 767 -1322 1513 -1537 198 -57 309 -70 586 -70 278 1 340
8 560 66 739 195 1334 790 1529 1529 58 220 65 282 66 560 0 220 -3 271 -22
375 -39 215 -100 398 -195 590 -314 632 -912 1071 -1608 1180 -147 23 -455 28
-600 10z m430 -135 c400 -35 765 -177 1083 -423 42 -33 77 -61 77 -63 0 -2
-595 -4 -1322 -4 l-1323 1 45 41 c67 60 266 189 373 241 347 169 704 238 1067
207z m1220 -2015 l0 -1385 -1385 0 -1385 0 0 1385 0 1385 1385 0 1385 0 0
-1385z m-2912 -667 l-3 -663 -75 100 c-528 700 -557 1628 -75 2350 40 61 90
130 112 155 l38 44 3 -662 c1 -364 1 -960 0 -1324z m3113 1924 c79 -97 176
-254 239 -383 310 -642 256 -1402 -140 -1996 -43 -65 -97 -138 -119 -163 l-40
-45 -1 1323 c0 727 3 1322 8 1322 4 0 28 -26 53 -58z m-301 -2823 c-25 -22
-98 -76 -164 -120 -669 -446 -1549 -451 -2219 -13 -108 71 -217 154 -217 167
0 4 595 7 1323 7 l1322 -1 -45 -40z"/>
<path d="M2043 3003 c-152 -250 -472 -776 -777 -1273 l-235 -385 1131 -3 c622
-1 1133 0 1135 2 3 2 -38 73 -90 158 -52 84 -276 450 -497 813 -465 763 -540
885 -544 885 -2 0 -57 -89 -123 -197z m569 -801 l436 -717 -875 -3 c-482 -1
-878 0 -881 2 -4 5 47 89 448 746 377 617 422 690 429 689 3 0 202 -323 443
-717z"/>
<path d="M6360 3235 l0 -455 75 0 75 0 0 455 0 455 -75 0 -75 0 0 -455z"/>
<path d="M6700 3235 l0 -455 70 0 70 0 0 455 0 455 -70 0 -70 0 0 -455z"/>
<path d="M4860 3215 l0 -435 75 0 75 0 0 165 0 165 205 0 205 0 0 75 0 75
-205 0 -205 0 0 120 0 120 233 2 232 3 3 73 3 72 -311 0 -310 0 0 -435z"/>
<path d="M5572 3173 c4 -190 7 -213 28 -261 60 -139 225 -194 366 -122 32 16
60 30 62 30 1 0 2 -9 2 -20 0 -18 7 -20 70 -20 l70 0 0 300 0 300 -70 0 -70 0
0 -199 0 -199 -39 -35 c-98 -88 -229 -63 -260 49 -6 22 -11 117 -11 212 l0
172 -76 0 -76 0 4 -207z"/>
<path d="M7770 2165 l0 -455 75 0 75 0 0 68 0 68 54 53 c30 29 58 51 63 48 4
-3 46 -57 93 -121 l85 -115 99 -1 c93 0 98 1 84 18 -51 60 -258 331 -258 338
0 5 48 57 106 114 146 145 144 140 36 140 l-88 0 -137 -137 -137 -138 0 288 0
287 -75 0 -75 0 0 -455z"/>
<path d="M5067 2586 c-81 -24 -144 -73 -180 -141 -27 -51 -30 -174 -5 -220 44
-84 108 -118 283 -155 144 -30 188 -49 206 -91 35 -87 -54 -157 -185 -147
-101 9 -185 66 -201 138 l-7 30 -74 0 -74 0 0 -33 c0 -45 53 -150 93 -183 142
-120 408 -120 535 0 88 82 104 224 36 313 -35 46 -132 89 -265 117 -168 35
-201 57 -201 132 0 76 59 117 167 118 106 1 163 -37 189 -126 5 -15 18 -18 82
-18 l76 0 -7 37 c-18 99 -85 176 -185 214 -70 27 -215 34 -283 15z"/>
<path d="M5750 2430 l0 -110 -65 0 -65 0 0 -65 0 -65 65 0 65 0 0 -129 c0 -70
5 -153 10 -182 27 -142 150 -212 315 -177 66 14 65 12 49 106 l-5 32 -68 -6
c-82 -8 -123 9 -140 57 -6 18 -11 92 -11 165 l0 134 115 0 116 0 -3 63 -3 62
-112 3 -113 3 0 109 0 110 -75 0 -75 0 0 -110z"/>
<path d="M6413 2309 c-63 -24 -132 -91 -164 -156 -33 -69 -38 -180 -10 -254
30 -79 86 -140 162 -174 55 -24 70 -27 143 -23 57 3 94 11 124 26 42 22 42 22
42 2 0 -18 6 -20 75 -20 l75 0 -2 303 -3 302 -72 3 c-69 3 -73 2 -73 -18 0
-12 -3 -20 -7 -18 -98 50 -207 61 -290 27z m212 -123 c19 -8 46 -27 60 -42 23
-25 25 -34 25 -128 0 -116 -8 -134 -70 -166 -49 -25 -129 -26 -177 -3 -53 25
-93 94 -93 159 0 64 13 100 48 138 51 54 136 71 207 42z"/>
<path d="M7225 2316 c-126 -40 -209 -141 -222 -272 -19 -179 113 -331 297
-342 41 -2 94 1 117 7 91 25 181 115 198 199 l7 32 -76 0 c-71 0 -77 -2 -85
-23 -22 -58 -104 -96 -176 -83 -71 14 -134 98 -135 181 0 49 35 121 71 148 80
58 208 31 240 -50 8 -21 15 -23 85 -23 l76 0 -7 33 c-17 76 -101 163 -186 190
-60 20 -147 21 -204 3z"/>
<path d="M7170 1385 c0 -91 -4 -165 -9 -165 -5 0 -28 9 -52 20 -65 29 -187 28
-254 -4 -63 -29 -138 -111 -159 -173 -23 -66 -21 -170 5 -237 25 -67 91 -139
157 -169 66 -31 187 -30 256 1 58 26 56 26 56 7 0 -12 14 -15 70 -15 l70 0 0
450 0 450 -70 0 -70 0 0 -165z m-62 -277 c55 -33 62 -52 62 -163 0 -97 -1
-102 -27 -128 -79 -75 -195 -75 -265 -1 -35 38 -48 74 -48 135 0 146 152 232
278 157z"/>
<path d="M8230 1100 l0 -450 75 0 75 0 0 450 0 450 -75 0 -75 0 0 -450z"/>
<path d="M8570 1100 l0 -450 75 0 75 0 0 450 0 450 -75 0 -75 0 0 -450z"/>
<path d="M4860 1085 l0 -435 75 0 75 0 2 259 3 260 120 -192 120 -192 40 -3
c22 -1 45 1 51 5 6 5 62 91 125 192 l114 184 3 -257 2 -256 80 0 80 0 -2 433
-3 432 -54 0 -55 0 -165 -267 c-91 -146 -168 -265 -171 -263 -3 2 -80 123
-170 269 l-165 266 -52 0 -53 0 0 -435z"/>
<path d="M6112 1244 c-61 -23 -145 -103 -172 -166 -35 -78 -33 -193 4 -270 35
-74 110 -143 179 -163 66 -20 171 -19 231 1 64 22 147 100 177 166 34 78 33
193 -3 268 -30 64 -85 123 -142 153 -54 28 -210 34 -274 11z m185 -125 c93
-35 138 -158 94 -254 -55 -121 -214 -139 -291 -33 -107 147 32 350 197 287z"/>
<path d="M7680 1251 c-122 -37 -202 -145 -208 -281 -5 -92 8 -143 51 -207 101
-151 353 -177 485 -50 30 28 62 76 62 92 0 3 -34 5 -75 5 -63 0 -80 -4 -111
-25 -44 -30 -127 -34 -181 -9 -34 17 -83 76 -83 101 0 10 51 13 230 13 l230 0
0 68 c0 88 -21 149 -73 208 -60 68 -122 94 -222 93 -44 0 -91 -4 -105 -8z
m170 -129 c37 -18 80 -74 80 -103 0 -18 -11 -19 -155 -19 -173 0 -177 2 -132
67 44 65 137 90 207 55z"/>
<path d="M9063 1244 c-181 -66 -252 -326 -133 -487 121 -164 407 -168 514 -6
14 21 26 43 26 49 0 6 -31 10 -77 10 -65 0 -80 -3 -100 -22 -17 -16 -39 -23
-83 -26 -77 -6 -137 22 -168 77 -12 21 -22 41 -22 45 0 3 105 7 233 8 l232 3
-1 71 c-2 116 -64 222 -157 271 -45 24 -207 28 -264 7z m180 -118 c43 -18 75
-55 83 -94 l7 -32 -157 0 c-102 0 -156 4 -156 10 0 19 27 64 53 88 43 40 114
52 170 28z"/>
<path d="M9900 1248 c-19 -5 -54 -23 -77 -39 l-43 -28 0 34 0 35 -75 0 -75 0
0 -300 0 -300 75 0 75 0 0 189 0 190 33 24 c49 38 92 57 142 64 l45 6 0 68 0
69 -32 -1 c-18 0 -49 -5 -68 -11z"/>
</g>
</svg>
